<?xml version="1.0" encoding="utf-8"?>
<?xml-stylesheet type="text/xsl" href="rss1.xsl"?>
<rss version="2.0" xmlns:atom="http://www.w3.org/2005/Atom" xmlns:content="http://purl.org/rss/1.0/modules/content/" xmlns:dc="http://purl.org/dc/elements/1.1/" xmlns:media="http://search.yahoo.com/mrss/">
<channel>
 <title>Getty</title>
 <link>http://www.gettyimg.com/</link>
 <atom:link href="http://www.gettyimg.com/" rel="self" type="application/rss+xml" />

 
                <item>
                <title><![CDATA[【Apple Music】WEB-RiP - Taylor Swft - All’s fair in love and poetry... [Apple Music | AVC | 3 837 * 720p  | AAC 256kbits]]]></title>
                <link><![CDATA[https://sharemania.us/threads/taylor-swft-all%E2%80%99s-fair-in-love-and-poetry-apple-music-avc-3-837-720p-aac-256kbits.240205/]]></link>
                <description><![CDATA[<article>
<blockquote class="messageText SelectQuoteContainer ugc baseHtml">
<img src="https://a5.mzstatic.com/us/r1000/0/Music211/v4/a8/45/fd/a845fd82-d5c1-bffe-806a-ed0700b1c589/24UMGIM29563.rgb.jpg" class="bbCodeImage LbImage" alt="[​IMG]" data-url="https://a5.mzstatic.com/us/r1000/0/Music211/v4/a8/45/fd/a845fd82-d5c1-bffe-806a-ed0700b1c589/24UMGIM29563.rgb.jpg" style=""> <br>
<br>
<div class="ToggleTriggerAnchor bbCodeSpoilerContainer">
<button type="button" class="button bbCodeSpoilerButton ToggleTrigger Tooltip JsOnly" data-target="> .SpoilerTarget"><span>Spoiler: <span class="SpoilerTitle">MediaInfo</span></span></button>
<div class="SpoilerTarget bbCodeSpoilerText">
<div class="bbCodeBlock bbCodeCode">
<div class="type">Code:</div>
<pre>General
Complete name                            : 17. All’s fair in love and poetry....m4v
Format                                   : MPEG-4
Format profile                           : Base Media
Codec ID                                 : isom (isom/iso2/avc1/mp41)
File size                                : 3.80 MiB
Duration                                 : 8 s 150 ms
Overall bit rate                         : 3 915 kb/s
Frame rate                               : 29.970 FPS
Movie name                               : All’s fair in love and poetry...
Album                                    : THE TORTURED POETS DEPARTMENT
Album/Performer                          : Taylor Swift
Part/Position                            : 1
Part/Total                               : 1
Track name/Position                      : 17
Track name/Total                         : 17
Performer                                : Taylor Swift
Genre                                    : Pop
ContentType                              : Music Video
Recorded date                            : 2024-04-19 07:00:00 UTC
Copyright                                : ℗ 2024 Taylor Swift
Cover                                    : Yes
Rating                                   : None
GenreID                                  : 1614
AppleStoreCountry                        : France
AlbumTitleID                             : 159260351
PlayListID                               : 1736268193
AppleStoreCatalogID                      : 1736268559

Video
ID                                       : 1
Format                                   : AVC
Format/Info                              : Advanced Video Codec
Format profile                           : High@L3.1
Format settings                          : CABAC / 5 Ref Frames
Format settings, CABAC                   : Yes
Format settings, Reference frames        : 5 frames
Codec ID                                 : avc1
Codec ID/Info                            : Advanced Video Coding
Duration                                 : 8 s 75 ms
Bit rate                                 : 3 837 kb/s
Width                                    : 720 pixels
Height                                   : 1 280 pixels
Display aspect ratio                     : 0.562
Frame rate mode                          : Constant
Frame rate                               : 29.970 (30000/1001) FPS
Color space                              : YUV
Chroma subsampling                       : 4:2:0
Bit depth                                : 8 bits
Scan type                                : Progressive
Bits/(Pixel*Frame)                       : 0.139
Stream size                              : 3.69 MiB (97%)
Title                                    : Core Media Video
Color range                              : Limited
Color primaries                          : BT.709
Transfer characteristics                 : BT.709
Matrix coefficients                      : BT.709
Codec configuration box                  : avcC

Audio
ID                                       : 2
Format                                   : AAC LC
Format/Info                              : Advanced Audio Codec Low Complexity
Codec ID                                 : mp4a-40-2
Duration                                 : 8 s 150 ms
Bit rate mode                            : Constant
Bit rate                                 : 2 250 b/s
Channel(s)                               : 2 channels
Channel layout                           : L R
Sampling rate                            : 48.0 kHz
Frame rate                               : 46.875 FPS (1024 SPF)
Compression mode                         : Lossy
Stream size                              : 2.24 KiB (0%)
Title                                    : Core Media Audio
Default                                  : Yes
Alternate group                          : 1

</pre>
</div></div>
</div><br>
<div class="bbCodeBlock bbCodeVfcHH HiddenContent">
<div class="attribution type">Hidden Content:</div>
<blockquote>You must reply before you can see the hidden data contained here.</blockquote>
</div>
<div class="messageTextEndMarker">&nbsp;</div>
</blockquote>
</article>]]></description>
                <author><![CDATA[SonMaxime]]></author>
                </item>

                </channel></rss>